<svg id="Layer_1" data-name="Layer 1" xmlns="http://www.w3.org/2000/svg" viewBox="0 0 317.31 486.43"><defs><style>.cls-1{fill:#ebeda4;opacity:0.5;}.cls-2{fill:#00acda;}.cls-3{fill:#0a86a3;}.cls-4{fill:#fec33b;}.cls-5{fill:#fff;}.cls-6{fill:#000120;}</style></defs><title>layer13</title><path class="cls-1" d="M361.49,398l55.7-10.42L547.18,670s-2.82,48.17-117.82,59.44c-93.22,9.14-117.88-28.32-117.88-28.32Z" transform="translate(-229.86 -244.44)"/><polygon class="cls-2" points="242.83 40.54 42.78 77.98 12.83 128.6 289.05 76.9 242.83 40.54"/><polygon class="cls-3" points="255.71 109.37 55.66 146.81 12.83 128.6 289.05 76.9 255.71 109.37"/><polygon class="cls-3" points="189.41 15.57 83.55 35.38 66.17 73.6 219.44 44.92 189.41 15.57"/><polygon class="cls-4" points="160.54 0 104.84 10.42 96.16 33.03 176.81 17.93 160.54 0"/><polygon class="cls-4" points="187.32 143.14 131.63 153.57 115.36 135.63 196.01 120.54 187.32 143.14"/><path class="cls-5" d="M531.93,319.85a9.5,9.5,0,0,1-7.59,11.09l-283.22,53A9.5,9.5,0,0,1,230,376.35h0a9.5,9.5,0,0,1,7.59-11.09l283.22-53a9.5,9.5,0,0,1,11.08,7.59h0Z" transform="translate(-229.86 -244.44)"/><circle class="cls-6" cx="377.58" cy="322.26" r="9.5" transform="translate(-282.7 -169.49) rotate(-10.6)"/><circle class="cls-6" cx="335.98" cy="330.04" r="9.5" transform="translate(-284.84 -177) rotate(-10.6)"/><circle class="cls-6" cx="294.5" cy="337.8" r="9.5" transform="translate(-286.98 -184.5) rotate(-10.6)"/><circle class="cls-6" cx="461.97" cy="306.46" r="9.5" transform="translate(-278.35 -154.23) rotate(-10.6)"/><circle class="cls-6" cx="420.49" cy="314.22" r="9.5" transform="translate(-280.49 -161.72) rotate(-10.6)"/></svg>