<svg id="Layer_1" data-name="Layer 1" xmlns="http://www.w3.org/2000/svg" viewBox="0 0 460.09 307"><defs><style>.cls-1{fill:#475558;}.cls-2{fill:#fff;}.cls-3{fill:#efefef;}.cls-4{fill:#e76a58;}.cls-5{fill:#fec052;}.cls-6{fill:#81d154;}.cls-7{fill:#808285;}.cls-8,.cls-9{fill:#bcbec0;}.cls-9{font-size:8px;font-family:Arial;}</style></defs><title>chrome-browser</title><path class="cls-1" d="M481,72.5V50.17a4,4,0,0,0-4-4H24.91a4,4,0,0,0-4,4V72.5H481Z" transform="translate(-20.91 -46.17)"/><path class="cls-2" d="M21,349.17a4,4,0,0,0,4,4H477a4,4,0,0,0,4-4V72.5H21V349.17Z" transform="translate(-20.91 -46.17)"/><rect class="cls-3" y="25.83" width="460.09" height="27.33"/><circle class="cls-4" cx="11.59" cy="13.17" r="3.35"/><circle class="cls-5" cx="21.72" cy="13.17" r="3.35"/><circle class="cls-6" cx="31.85" cy="13.17" r="3.35"/><path class="cls-2" d="M443.75,92.24c0,1.21-1.29,2.19-2.87,2.19H92c-1.59,0-2.88-1-2.88-2.19V79.08c0-1.21,1.29-2.19,2.88-2.19H440.88c1.59,0,2.87,1,2.87,2.19V92.24Z" transform="translate(-20.91 -46.17)"/><path class="cls-3" d="M190.44,68.73c0.15,0.44-.43.77-1,0.77H175.29a0.91,0.91,0,0,1-1-.77l-2.18-8.38a0.84,0.84,0,0,1,1-.77h14.07a0.94,0.94,0,0,1,1,.77Z" transform="translate(-20.91 -46.17)"/><path class="cls-3" d="M172.4,72.5l-4-15.41c-0.5-1.57-1.25-2.76-2.8-2.76H70.49c-1.54,0-2.41,1.36-2.8,2.76l-4,15.41H172.4Z" transform="translate(-20.91 -46.17)"/><polygon class="cls-7" points="54.31 13.4 54.31 16.07 56.99 16.07 54.31 13.4"/><polygon class="cls-8" points="54.31 13.4 51.1 13.4 51.1 21.1 56.99 21.1 56.99 16.07 54.31 16.07 54.31 13.4"/><text class="cls-9" transform="translate(60.89 20.1)">One<tspan x="16" y="0"> </tspan><tspan x="18.08" y="0">Nexus</tspan></text><path class="cls-7" d="M165.17,64.67l-1.25-1.25,1.25-1.25a0.47,0.47,0,0,0-.67-0.67l-1.25,1.25L162,61.5a0.47,0.47,0,1,0-.67.67l1.25,1.25-1.25,1.25a0.47,0.47,0,0,0,.67.67l1.25-1.25,1.25,1.25A0.47,0.47,0,0,0,165.17,64.67Z" transform="translate(-20.91 -46.17)"/><path class="cls-7" d="M465.17,82.45a1,1,0,0,1-1,1H458a1,1,0,0,1-1-1h0a1,1,0,0,1,1-1h6.15a1,1,0,0,1,1,1h0Z" transform="translate(-20.91 -46.17)"/><path class="cls-7" d="M465.17,85.52a1,1,0,0,1-1,1H458a1,1,0,0,1-1-1h0a1,1,0,0,1,1-1h6.15a1,1,0,0,1,1,1h0Z" transform="translate(-20.91 -46.17)"/><path class="cls-7" d="M465.17,88.6a1,1,0,0,1-1,1H458a1,1,0,0,1-1-1h0a1,1,0,0,1,1-1h6.15a1,1,0,0,1,1,1h0Z" transform="translate(-20.91 -46.17)"/><path class="cls-8" d="M53,86a0.8,0.8,0,0,0,0-1l0,0h0a0.82,0.82,0,0,0-.15-0.15l-3.27-3.27a0.71,0.71,0,0,0-1,1l2.1,2.1H44a0.89,0.89,0,0,0,0,1.77h6.68l-2.11,2.11a0.71,0.71,0,0,0,1,1l3.27-3.27A0.84,0.84,0,0,0,53,86.06h0Z" transform="translate(-20.91 -46.17)"/><path class="cls-8" d="M28.91,86a0.8,0.8,0,0,1,0-1l0,0h0a0.84,0.84,0,0,1,.15-0.15l3.27-3.27a0.71,0.71,0,0,1,1,1l-2.1,2.1H37.9a0.89,0.89,0,0,1,0,1.77H31.23l2.11,2.11a0.71,0.71,0,0,1-1,1L29.09,86.2A0.84,0.84,0,0,1,29,86.06h0Z" transform="translate(-20.91 -46.17)"/><path class="cls-7" d="M64.57,87.39h0a2.64,2.64,0,1,1,0-3.77l-0.71.71,1.26,0.14,1.26,0.14L66.2,83.35l-0.14-1.26-0.56.56a4,4,0,1,0,0,5.7Z" transform="translate(-20.91 -46.17)"/><polygon class="cls-7" points="58.04 37.32 55.99 35.41 53.94 37.32 51.88 39.23 53.21 39.23 53.21 43.29 55.16 43.29 55.16 40.43 56.82 40.43 56.82 43.29 58.77 43.29 58.77 39.23 60.09 39.23 58.04 37.32"/><polygon class="cls-7" points="58.16 37.05 58.77 37.62 58.77 35.59 57.78 35.59 57.78 36.7 58.16 37.05"/><path class="cls-8" d="M100.32,88.47l-2.39-2.39a2.84,2.84,0,1,0-1,1l2.37,2.37A0.81,0.81,0,0,0,100.32,88.47Zm-6.73-3.79a1.88,1.88,0,1,1,1.88,1.88A1.88,1.88,0,0,1,93.59,84.67Z" transform="translate(-20.91 -46.17)"/><rect class="cls-8" x="403.65" y="39.02" width="2.88" height="0.58"/><path class="cls-8" d="M430.31,88.85l-1.62-1.62a3.24,3.24,0,1,0-1,1l1.62,1.62A0.74,0.74,0,0,0,430.31,88.85Zm-6.63-3.37A2.31,2.31,0,1,1,426,87.78,2.31,2.31,0,0,1,423.69,85.47Z" transform="translate(-20.91 -46.17)"/><path class="cls-8" d="M440.27,85.1c0.12-.12.08-0.23-0.08-0.25l-2.26-.32a0.64,0.64,0,0,1-.43-0.31l-1-2c-0.07-.15-0.19-0.15-0.27,0l-1,2a0.64,0.64,0,0,1-.43.31l-2.25.33c-0.16,0-.2.14-0.08,0.25l1.63,1.59a0.64,0.64,0,0,1,.17.5l-0.38,2.25c0,0.16.07,0.23,0.22,0.16l2-1.06a0.64,0.64,0,0,1,.53,0l2,1.06c0.15,0.08.24,0,.21-0.16l-0.39-2.24a0.64,0.64,0,0,1,.16-0.5Zm-3.64,2.71a0.64,0.64,0,0,0-.53,0l-1.29.68c-0.15.08-.24,0-0.22-0.16l0.25-1.44a0.64,0.64,0,0,0-.17-0.51l-1-1c-0.12-.12-0.08-0.23.08-0.25l1.45-.21a0.64,0.64,0,0,0,.43-0.31l0.65-1.31c0.07-.15.19-0.15,0.27,0l0.65,1.31a0.64,0.64,0,0,0,.43.31L439,85.11c0.16,0,.2.14,0.08,0.25l-1,1a0.64,0.64,0,0,0-.16.5l0.25,1.44c0,0.16-.07.23-0.21,0.16Z" transform="translate(-20.91 -46.17)"/><text x="-20.91" y="-46.17"/><rect class="cls-3" x="465.09" y="59.26" width="4.95" height="1.47" transform="translate(73.64 302.05) rotate(-45)"/><polygon class="cls-3" points="446.32 14.16 448.32 16.16 446.17 16.32 444.01 16.48 444.17 14.32 444.32 12.16 446.32 14.16"/><rect class="cls-3" x="469.02" y="55.33" width="4.95" height="1.47" transform="translate(77.49 303.58) rotate(-44.99)"/><polygon class="cls-3" points="450.93 9.56 448.93 7.56 451.08 7.41 453.24 7.25 453.08 9.41 452.93 11.56 450.93 9.56"/></svg>