<svg id="Layer_1" data-name="Layer 1" xmlns="http://www.w3.org/2000/svg" viewBox="0 0 1901 1095.49"><defs><style>.cls-1{fill:#fff;}</style></defs><title>laptop-outline</title><path class="cls-1" d="M1273.66-1855.76H1097.95a57.3,57.3,0,0,0,3.15-18.74v-958.08a57.73,57.73,0,0,0-57.67-57.67H-390.81a57.73,57.73,0,0,0-57.67,57.67v958.09a57.3,57.3,0,0,0,3.15,18.74h-176a3,3,0,0,0-3,3v29.45a5.76,5.76,0,0,0,2.19,5q0.78,0.59,1.67,1.2h0c13.1,9,45.95,22.42,82.78,22.42H1190c36.83,0,69.68-13.41,82.78-22.42h0c0.75-.52,1.47-1,2.13-1.56a5,5,0,0,0,1.73-4.19v-29.83A3.09,3.09,0,0,0,1273.66-1855.76ZM-444.48-1874.5v-958.08a53.73,53.73,0,0,1,53.67-53.67H1043.43a53.73,53.73,0,0,1,53.67,53.67v958.09a53.27,53.27,0,0,1-3.41,18.74h-157l-0.2-.88-4.71-20.87h140a20,20,0,0,0,20-20v-935.77a47.72,47.72,0,0,0-47.67-47.67H-391.51a47.72,47.72,0,0,0-47.67,47.67v935.77a20,20,0,0,0,20,20h135.39l-4.71,20.87-0.2.88H-441.08A53.27,53.27,0,0,1-444.48-1874.5Zm636.18,18.74H-284.59l4.88-21.62H927.72l4.87,21.63H191.7Zm264.77,4c-1.18,6.44-7.51,17.42-18.72,17.42H214.62c-11.21,0-17.54-11-18.72-17.42H456.47Zm-875.65-29.75a16,16,0,0,1-16-16v-935.77A43.72,43.72,0,0,1-391.51-2877H1044.12a43.72,43.72,0,0,1,43.67,43.67v935.77a16,16,0,0,1-16,16h-1491Zm-201.14,29.75H191.86c1.16,8.28,9.1,21.42,22.76,21.42H437.76c13.67,0,21.6-13.13,22.76-21.42h812.16v28.83a1.76,1.76,0,0,1-.19,1c-0.46.35-.94,0.71-1.44,1.07H-618.7l-1.05-.77c-0.38-.28-0.57-0.62-0.57-1.74v-28.42Zm1810.36,53H-537.67c-31.17,0-59.32-9.78-74.51-18.07H1264.55C1249.36-1808.54,1221.21-1798.76,1190-1798.76Z" transform="translate(624.32 2890.25)"/><path class="cls-1" d="M1048.26-2828.63H-396a5,5,0,0,0-5,5v903.13a5,5,0,0,0,5,5H1048.26a5,5,0,0,0,5-5v-903.13A5,5,0,0,0,1048.26-2828.63Zm0,908.13H-396v-903.13H1048.26v903.13Z" transform="translate(624.32 2890.25)"/><path class="cls-1" d="M326.57-2842.16a8,8,0,0,0,8-8,8,8,0,0,0-8-8,8,8,0,0,0-8,8A8,8,0,0,0,326.57-2842.16Zm0-12a4,4,0,0,1,4,4,4,4,0,0,1-4,4,4,4,0,0,1-4-4A4,4,0,0,1,326.57-2854.16Z" transform="translate(624.32 2890.25)"/><path class="cls-1" d="M30.54-1801.14h0l1.18,0c5.55-.15,8.77-1.17,9.58-3a2.61,2.61,0,0,0-.5-2.82c-2.28-2.56-10.43-2.69-12-2.69l-1.18,0c-5.55.15-8.77,1.17-9.58,3a2.6,2.6,0,0,0,.5,2.82C20.79-1801.27,28.93-1801.14,30.54-1801.14Z" transform="translate(624.32 2890.25)"/><path class="cls-1" d="M618.34-1801.15l1.19,0c1.61,0,9.75-.13,12-2.69a2.6,2.6,0,0,0,.5-2.82c-0.81-1.87-4-2.89-9.58-3l-1.18,0c-1.61,0-9.76.13-12,2.69a2.6,2.6,0,0,0-.5,2.82C609.56-1802.33,612.79-1801.3,618.34-1801.15Z" transform="translate(624.32 2890.25)"/></svg>