<svg xmlns="http://www.w3.org/2000/svg" viewBox="0 0 760.73 483.97"><defs><style>.cls-1{isolation:isolate;}.cls-2{fill:#fff;}.cls-3{fill:#52d1e1;}.cls-4{fill:#ffff47;}.cls-5{fill:#9ee34a;}.cls-6{fill:#ff8788;}.cls-11,.cls-7{fill:#3b9dad;}.cls-7{opacity:0.2;}.cls-11,.cls-14,.cls-7{mix-blend-mode:multiply;}.cls-8{fill:#f2beaa;}.cls-9{fill:#968fa0;}.cls-10{fill:#b0f0f2;}.cls-11,.cls-14{opacity:0.4;}.cls-12{fill:#f1f2f2;}.cls-13{fill:#d2deb6;}.cls-14{fill:#6b6868;}.cls-15{fill:#03a897;}</style></defs><title>layer3</title><g class="cls-1"><g id="Layer_1" data-name="Layer 1"><circle class="cls-2" cx="11.9" cy="26.68" r="3.28"/><circle class="cls-2" cx="3.28" cy="405.17" r="3.28"/><circle class="cls-2" cx="130.48" cy="2.83" r="2.83"/><path class="cls-3" d="M573.26,140.56a15.57,15.57,0,0,1-15.08-15.45H558A15.57,15.57,0,0,1,543,140.56a15.58,15.58,0,0,1,15.09,15.55h0.12A15.58,15.58,0,0,1,573.26,140.56Z" transform="translate(-104.78 -67.4)"/><path class="cls-4" d="M550.86,420.11A8.13,8.13,0,0,1,543,412h-0.07a8.12,8.12,0,0,1-7.87,8.06,8.13,8.13,0,0,1,7.87,8.11H543A8.13,8.13,0,0,1,550.86,420.11Z" transform="translate(-104.78 -67.4)"/><path class="cls-5" d="M702.18,430.75a10.71,10.71,0,0,1-10.37-10.62h-0.09a10.71,10.71,0,0,1-10.37,10.62,10.71,10.71,0,0,1,10.38,10.7h0.08A10.72,10.72,0,0,1,702.18,430.75Z" transform="translate(-104.78 -67.4)"/><path class="cls-3" d="M244.11,187.1a15.58,15.58,0,0,1,15.09,15.45h0.13a15.57,15.57,0,0,1,15.08-15.45,15.58,15.58,0,0,1-15.09-15.55H259.2A15.58,15.58,0,0,1,244.11,187.1Z" transform="translate(-104.78 -67.4)"/><path class="cls-4" d="M197.35,343.67a8.12,8.12,0,0,1,7.87,8.06h0.07a8.12,8.12,0,0,1,7.87-8.06,8.13,8.13,0,0,1-7.87-8.11h-0.06A8.13,8.13,0,0,1,197.35,343.67Z" transform="translate(-104.78 -67.4)"/><path class="cls-5" d="M148.4,271.1a10.71,10.71,0,0,1,10.37,10.63h0.09a10.71,10.71,0,0,1,10.37-10.62,10.71,10.71,0,0,1-10.38-10.69h-0.08A10.72,10.72,0,0,1,148.4,271.1Z" transform="translate(-104.78 -67.4)"/><circle class="cls-6" cx="657.15" cy="181.89" r="20.11"/><path class="cls-7" d="M772.52,243.53a16,16,0,0,1-25.46,13,16,16,0,1,0,23.55-20.57A16,16,0,0,1,772.52,243.53Z" transform="translate(-104.78 -67.4)"/><ellipse class="cls-8" cx="756.02" cy="243.36" rx="7.97" ry="6.75" transform="translate(-47.04 554.36) rotate(-46.3)"/><path class="cls-9" d="M772.46,489.23a33.86,33.86,0,0,1-36.62,48.64A32,32,0,1,0,772.46,489.23Z" transform="translate(-104.78 -67.4)"/><circle class="cls-10" cx="239.87" cy="41.19" r="35.01"/><path class="cls-11" d="M363.09,98.57a27.91,27.91,0,0,1-44.31,22.61,27.93,27.93,0,1,0,41-35.82A27.82,27.82,0,0,1,363.09,98.57Z" transform="translate(-104.78 -67.4)"/><ellipse class="cls-12" cx="334.37" cy="98.27" rx="13.87" ry="11.75" transform="translate(-72.5 204.66) rotate(-46.29)"/><circle class="cls-13" cx="706.93" cy="306.36" r="31.37"/><path class="cls-14" d="M793.95,363.15a27.49,27.49,0,0,0,43.65,22.28,27.52,27.52,0,1,1-40.38-35.28A27.4,27.4,0,0,0,793.95,363.15Z" transform="translate(-104.78 -67.4)"/><ellipse class="cls-12" cx="822.24" cy="362.86" rx="11.58" ry="13.67" transform="translate(-127.62 601.37) rotate(-43.71)"/><path class="cls-15" d="M780.76,378.91a31.1,31.1,0,0,0,2.88,8.87c-4.13,3.75-6.26,6.55-5.53,7.71s4.24,0.48,9.52-1.62c0.85-.34,1.74-0.71,2.67-1.12a215.11,215.11,0,0,0,25.83-14c7.45-4.64,14.15-9.27,19.46-13.36q2.74-2.11,4.95-4c5.34-4.56,8.22-8,7.4-9.35s-5.13-.29-11.5,2.44a31.53,31.53,0,0,0-6.72-6.39c18.1-8.43,32.22-11.44,35.21-6.63s-6.15,16.4-22,29.08q-1.92,1.53-4,3.08c-5.49,4.16-11.62,8.39-18.24,12.51A232.39,232.39,0,0,1,796,399.57l-1.28.58c-17.35,7.88-30.75,10.58-33.65,5.91S766.35,390.82,780.76,378.91Z" transform="translate(-104.78 -67.4)"/></g></g></svg>