<svg id="Layer_1" data-name="Layer 1" xmlns="http://www.w3.org/2000/svg" viewBox="0 0 386.5 806.5"><defs><style>.cls-1{fill:#fff;}</style></defs><title>phone-outline</title><path class="cls-1" d="M-265.6,4820.94a57.72,57.72,0,0,0-41.06-17h-4.93v-3.48l-1.17-.9-2-1.5-0.81-.62h-58.24l-0.69.4-2.62,1.5-1.51.86V4804H-571.52a57.72,57.72,0,0,0-41.06,17,57.6,57.6,0,0,0-17,41v50.49h-2.24l-0.88.88-1.5,1.5-0.88.88v36l0.88,0.88,1.5,1.5,0.88,0.88h2.24v33h-2.24l-0.88.88-1.5,1.5-0.88.88v27.48l0.88,0.88,1.5,1.5,0.88,0.88h2.24v32.5h-2.24l-0.88.88-1.5,1.5-0.88.88v27.48l0.88,0.88,1.5,1.5,0.88,0.88h2.24v457.49a57.6,57.6,0,0,0,17,41,57.72,57.72,0,0,0,41.06,17h264.87a57.72,57.72,0,0,0,41.06-17,57.6,57.6,0,0,0,17-41V4862A57.6,57.6,0,0,0-265.6,4820.94Zm-110-19,2.62-1.5h56.42l2,1.5v2h-61v-2Zm-234.16,21.82A53.74,53.74,0,0,1-571.52,4808h264.87a53.74,53.74,0,0,1,38.23,15.82A53.62,53.62,0,0,1-252.58,4862v12.49h-4v-12.53a50,50,0,0,0-50.07-50H-571.52a50,50,0,0,0-50.07,50v12.53h-4V4862A53.62,53.62,0,0,1-609.75,4823.77Zm357.16,56.68V5528h-4v-647.5h4Zm-8-18.53v684a46.09,46.09,0,0,1-46.07,46H-571.52a46.09,46.09,0,0,1-46.07-46v-684a46.09,46.09,0,0,1,46.07-46h264.87A46.09,46.09,0,0,1-260.58,4861.93Zm-365,226.53v-208h4V5528h-4v-439.5Zm-5-136.5-1.5-1.5V4917l1.5-1.5h1V4952h-1Zm0,67-1.5-1.5v-25l1.5-1.5h1v28h-1Zm0,66.5-1.5-1.5v-25l1.5-1.5h1v28h-1Zm362.16,498.68A53.75,53.75,0,0,1-306.65,5600H-571.52a53.75,53.75,0,0,1-38.23-15.82,53.63,53.63,0,0,1-15.84-38.19v-12h4v12a50,50,0,0,0,50.07,50h264.87a50,50,0,0,0,50.07-50v-12h4v12A53.63,53.63,0,0,1-268.42,5584.14Z" transform="translate(635.09 -4797.45)"/><path class="cls-1" d="M-467.58,4882.45h55a7.5,7.5,0,0,0,7.5-7.5,7.5,7.5,0,0,0-7.5-7.5h-55a7.5,7.5,0,0,0-7.5,7.5A7.5,7.5,0,0,0-467.58,4882.45Zm0-11h55a3.5,3.5,0,0,1,3.5,3.5,3.5,3.5,0,0,1-3.5,3.5h-55a3.5,3.5,0,0,1-3.5-3.5A3.5,3.5,0,0,1-467.58,4871.45Z" transform="translate(635.09 -4797.45)"/><path class="cls-1" d="M-279.58,4916h-320a4,4,0,0,0-4,4v568a4,4,0,0,0,4,4h320a4,4,0,0,0,4-4V4920A4,4,0,0,0-279.58,4916Zm0,572h-320V4920h320v568Z" transform="translate(635.09 -4797.45)"/><path class="cls-1" d="M-439.33,5510a33.75,33.75,0,0,0-33.75,33.75,33.75,33.75,0,0,0,33.75,33.75,33.75,33.75,0,0,0,33.75-33.75A33.75,33.75,0,0,0-439.33,5510Zm0,63.5a29.78,29.78,0,0,1-29.75-29.75A29.78,29.78,0,0,1-439.33,5514a29.78,29.78,0,0,1,29.75,29.75A29.78,29.78,0,0,1-439.33,5573.45Z" transform="translate(635.09 -4797.45)"/><path class="cls-1" d="M-439.58,4853.27a8.51,8.51,0,0,0,8.5-8.5,8.51,8.51,0,0,0-8.5-8.5,8.51,8.51,0,0,0-8.5,8.5A8.51,8.51,0,0,0-439.58,4853.27Zm0-14a5.51,5.51,0,0,1,5.5,5.5,5.51,5.51,0,0,1-5.5,5.5,5.51,5.51,0,0,1-5.5-5.5A5.51,5.51,0,0,1-439.58,4839.27Z" transform="translate(635.09 -4797.45)"/><circle class="cls-1" cx="195.5" cy="47.18" r="3"/></svg>