<svg id="Layer_1" data-name="Layer 1" xmlns="http://www.w3.org/2000/svg" viewBox="0 0 891 1259.63"><defs><style>.cls-1{fill:#fff;}</style></defs><title>tablet-outline</title><path class="cls-1" d="M38.15,939.35A53.68,53.68,0,0,0,.16,924H-785.68A50.82,50.82,0,0,0-822,939.39a52.61,52.61,0,0,0-15.26,37.16V2131c0,29,25.42,52.58,56.66,52.58H-2.9a57.69,57.69,0,0,0,39.75-15.31,53.71,53.71,0,0,0,16.84-39.65V976.55A51.87,51.87,0,0,0,38.15,939.35ZM49.69,2128.64c0,30-24,51-52.59,51H-780.65c-29.05,0-52.66-21.75-52.66-48.58V976.55c0-26.83,21.75-48.58,47.63-48.58H0.16c27.78,0,49.53,21.75,49.53,48.58V2128.64Z" transform="translate(837.31 -923.97)"/><path class="cls-1" d="M0.19,934H-785.65a40.9,40.9,0,0,0-29.25,12.44,42.67,42.67,0,0,0-12.38,30.14V2131c0,23.48,20.93,42.58,46.66,42.58H-2.87A47.73,47.73,0,0,0,30,2161a43.81,43.81,0,0,0,13.69-32.36V976.55a42,42,0,0,0-12.56-30.08A43.74,43.74,0,0,0,.19,934ZM39.72,2128.64a39.85,39.85,0,0,1-12.42,29.44A43.75,43.75,0,0,1-2.87,2169.6H-780.62c-23.52,0-42.66-17.31-42.66-38.58V976.55A38.69,38.69,0,0,1-812,949.22,36.93,36.93,0,0,1-785.65,938H0.19a39.77,39.77,0,0,1,28.16,11.35,38,38,0,0,1,11.37,27.23V2128.64Z" transform="translate(837.31 -923.97)"/><path class="cls-1" d="M-7.58,1036.49h-768a5,5,0,0,0-5,5v1024a5,5,0,0,0,5,5h768a5,5,0,0,0,5-5v-1024A5,5,0,0,0-7.58,1036.49Zm0,1029h-768v-1024h768v1024Z" transform="translate(837.31 -923.97)"/><path class="cls-1" d="M-392.11,992.8a7.5,7.5,0,0,0,7.5-7.5,7.5,7.5,0,0,0-7.5-7.5,7.5,7.5,0,0,0-7.5,7.5A7.5,7.5,0,0,0-392.11,992.8Zm0-12a4.5,4.5,0,0,1,4.5,4.5,4.5,4.5,0,0,1-4.5,4.5,4.5,4.5,0,0,1-4.5-4.5A4.5,4.5,0,0,1-392.11,980.8Z" transform="translate(837.31 -923.97)"/><ellipse class="cls-1" cx="423.7" cy="61.52" rx="4.02" ry="4.04"/><path class="cls-1" d="M-392.16,2095.68a30,30,0,0,0-30,30c0,0.24,0,.48,0,0.72a30,30,0,0,0,30,29.28,30,30,0,0,0,30-30A30,30,0,0,0-392.16,2095.68Zm0,56a25.84,25.84,0,0,1-18.17-7.41,25.86,25.86,0,0,1-7.81-18V2126c0-.12,0-0.23,0-0.35a26,26,0,0,1,26-26,26,26,0,0,1,26,26A26,26,0,0,1-392.16,2151.68Z" transform="translate(837.31 -923.97)"/><path class="cls-1" d="M-386.39,2114h-11.85a5.08,5.08,0,0,0-5.08,5.08v11.85a5.08,5.08,0,0,0,5.08,5.08h11.85a5.08,5.08,0,0,0,5.08-5.08V2119A5.08,5.08,0,0,0-386.39,2114Zm1.08,16.92a1.08,1.08,0,0,1-1.08,1.08h-11.85a1.08,1.08,0,0,1-1.08-1.08V2119a1.08,1.08,0,0,1,1.08-1.08h11.85a1.08,1.08,0,0,1,1.08,1.08v11.85Z" transform="translate(837.31 -923.97)"/></svg>