<svg id="Layer_1" data-name="Layer 1" xmlns="http://www.w3.org/2000/svg" viewBox="0 0 707.47 1047.03"><defs><style>.cls-1{fill:#fff;}</style></defs><title>tablet-mini-outline</title><path class="cls-1" d="M24,2984.1H-576.68c-30.45,0-53.41,23-53.41,53.4v940.22c0,30.45,23,53.4,53.41,53.4H24c30.45,0,53.41-23,53.41-53.4V3037.5C77.38,3007.06,54.42,2984.1,24,2984.1Zm49.41,993.62c0,28.16-21.24,49.4-49.41,49.4H-576.68c-28.17,0-49.41-21.24-49.41-49.4V3037.5c0-28.17,21.24-49.4,49.41-49.4H24c28.17,0,49.41,21.24,49.41,49.4v940.22Z" transform="translate(630.09 -2984.1)"/><path class="cls-1" d="M24,2992.86H-576.68c-12.38,0-23.7,4.49-31.89,12.64s-12.75,19.55-12.75,32v940.22c0,12.46,4.53,23.82,12.75,32s19.52,12.64,31.89,12.64H24c12.38,0,23.7-4.49,31.89-12.64s12.75-19.55,12.75-32V3037.5c0-12.46-4.53-23.82-12.75-32S36.35,2992.86,24,2992.86Zm40.64,984.86c0,11.38-4.11,21.74-11.57,29.17S35.28,4018.36,24,4018.36H-576.68c-11.31,0-21.64-4.07-29.07-11.47s-11.57-17.79-11.57-29.17V3037.5c0-11.38,4.11-21.74,11.57-29.17s17.76-11.47,29.07-11.47H24c11.31,0,21.64,4.07,29.07,11.47s11.57,17.78,11.57,29.17v940.22Z" transform="translate(630.09 -2984.1)"/><path class="cls-1" d="M-276.57,3049.16a7,7,0,0,0,7-7,7,7,0,0,0-7-7,7,7,0,0,0-7,7A7,7,0,0,0-276.57,3049.16Zm0-11a4,4,0,0,1,4,4,4,4,0,0,1-4,4,4,4,0,0,1-4-4A4,4,0,0,1-276.57,3038.16Z" transform="translate(630.09 -2984.1)"/><path class="cls-1" d="M-276.7,3953.25a25.83,25.83,0,0,0-25.83,25.83,25.83,25.83,0,0,0,25.83,25.83,25.83,25.83,0,0,0,25.83-25.83A25.83,25.83,0,0,0-276.7,3953.25Zm0,47.66a21.86,21.86,0,0,1-21.83-21.83,21.86,21.86,0,0,1,21.83-21.83,21.86,21.86,0,0,1,21.83,21.83A21.86,21.86,0,0,1-276.7,4000.91Z" transform="translate(630.09 -2984.1)"/><path class="cls-1" d="M-270.87,3969.57h-11.67a4.06,4.06,0,0,0-4.06,4.06v11.67a4.06,4.06,0,0,0,4.06,4.06h11.67a4.06,4.06,0,0,0,4.06-4.06v-11.67A4.06,4.06,0,0,0-270.87,3969.57Zm0.06,15.73a0.06,0.06,0,0,1-.06.06h-11.67a0.06,0.06,0,0,1-.06-0.06v-11.67a0.06,0.06,0,0,1,.06-0.06h11.67a0.06,0.06,0,0,1,.06.06v11.67Z" transform="translate(630.09 -2984.1)"/><path class="cls-1" d="M34.64,3087.12h-622a5,5,0,0,0-5,5v830a5,5,0,0,0,5,5h622a5,5,0,0,0,5-5v-830A5,5,0,0,0,34.64,3087.12Zm0,835h-622v-830h622v830Z" transform="translate(630.09 -2984.1)"/></svg>