<svg id="Capa_1" data-name="Capa 1" xmlns="http://www.w3.org/2000/svg" viewBox="0 0 384 384"><defs><style>.cls-1{fill:#4bea5a;}.cls-2{opacity:0.1;isolation:isolate;}.cls-3{fill:#64798a;}.cls-4{fill:#ebf0f3;}.cls-5{fill:#e1e6e9;}.cls-6{fill:#27a2db;}.cls-7{fill:#fcd462;}.cls-8{fill:#e56353;}</style></defs><title>Rocket</title><circle class="cls-1" cx="192" cy="192" r="192"/><path class="cls-2" d="M384,192a193.49,193.49,0,0,0-1.45-23.26L299.8,86a5.48,5.48,0,0,0-1-.8,1.48,1.48,0,0,1-.44-.2l-.92-.36c-.2,0-.44-.12-.68-.16a7.37,7.37,0,0,0-1-.2,6,6,0,0,0-.84-.08,9.83,9.83,0,0,0-1.12-.08,8,8,0,0,0-1,0c-.4,0-.8,0-1.24.08a10.11,10.11,0,0,0-1.12,0c-.44,0-.92.12-1.4.16s-.8.08-1.24.16l-1.48.24c-.48.08-.92.16-1.44.28a7,7,0,0,0-.88.2c-1.32.24-2.68.6-4.08,1-.4.08-.8.2-1.2.32-.68.16-1.44.4-2.16.6-.44.16-.84.28-1.28.4l-2.32.72-1.32.48c-.8.24-1.64.52-2.44.84L267.8,90l-2.6,1c-.44.16-.88.36-1.32.52-.92.36-1.84.72-2.8,1.12-.36.12-.72.28-1.08.44-1,.44-2.08.88-3.16,1.32a317.15,317.15,0,0,0-45,24.2,294.19,294.19,0,0,0-44.64,35,280,280,0,0,0-21.92,23.56c-16.92-6.76-38.08-2.68-53.24,12a55.43,55.43,0,0,0-10.16,13.4l31.32,31.32C104.8,247,97.72,281.55,97.72,281.55L200,383.8C302.31,379.61,384,295.37,384,192Z"/><path class="cls-3" d="M176.21,299.93a55,55,0,0,0,13.72-9.69c20-19.31,22-49.56,4.58-67.56l-23.85,23.09C184.43,260,186,281.85,176.21,299.93Z"/><path class="cls-3" d="M81.93,202.53a55,55,0,0,1,10.13-13.4c20-19.31,50.25-20.37,67.67-2.37l-23.85,23.09C122.11,195.62,100.32,193.34,81.93,202.53Z"/><path class="cls-4" d="M162.62,260.68c18.05-5.87,40.35-20.22,65.33-44.39,48.46-46.9,83.58-118.17,71.84-130.3-9.77-10.1-84.11,20.65-132.57,67.55-25,24.18-40,46-46.5,63.85Z"/><circle class="cls-5" cx="234.38" cy="149.32" r="22.13"/><circle class="cls-6" cx="234.38" cy="149.32" r="16.29"/><path class="cls-7" d="M127.46,224.36a23.91,23.91,0,0,0-11.65,6.21c-9.55,9.24-18.08,51-18.08,51s42-7.17,51.56-16.41a23.92,23.92,0,0,0,6.58-11.44Z"/><path class="cls-8" d="M131,228a18,18,0,0,0-8.77,4.67C115,239.62,108.6,271,108.6,271s31.62-5.39,38.81-12.35a18,18,0,0,0,5-8.61Z"/><path class="cls-7" d="M135.16,232.32a11,11,0,0,0-5.33,2.84c-4.37,4.23-8.28,23.35-8.28,23.35s19.24-3.28,23.61-7.51a11,11,0,0,0,3-5.24Z"/><path class="cls-8" d="M299.79,86c-4.32-4.46-21.23-.94-42.94,8.4l34,35.08C301,108.24,305,91.35,299.79,86Z"/><path class="cls-7" d="M290.8,129.47l-34-35.08c-1.49.64-3,1.34-4.56,2l36.3,37.5C289.34,132.43,290.1,130.93,290.8,129.47Z"/></svg>