<svg id="Layer_1" data-name="Layer 1" xmlns="http://www.w3.org/2000/svg" xmlns:xlink="http://www.w3.org/1999/xlink" viewBox="0 0 128 128"><defs><style>.cls-1{fill:url(#radial-gradient);}.cls-2{fill:#f4c342;}.cls-3{fill:#f89b36;}.cls-4{fill:#ec7c2d;}.cls-5{fill:#d9521e;}.cls-6{fill:#bdc3c7;}.cls-7{fill:#94a5a6;}.cls-8{fill:#ecf0f1;}</style><radialGradient id="radial-gradient" cx="64" cy="-144" r="64" gradientTransform="translate(0 208)" gradientUnits="userSpaceOnUse"><stop offset="0.01" stop-color="#33495f"/><stop offset="1" stop-color="#2b3e51"/></radialGradient></defs><title>LightBulb4</title><g id="Design"><g id="lightbulb"><circle class="cls-1" cx="64" cy="64" r="64"/><path class="cls-2" d="M87.19,55.35a23.19,23.19,0,1,0-46.38,0c0,.41,0,.83,0,1.24h0c0,6.42,5.35,15.93,7.49,19.5S52.23,89,52.23,89H76s1.61-9.33,3.75-12.9,7.49-13,7.49-19.47l0,0C87.18,56.19,87.19,55.77,87.19,55.35Z"/><path class="cls-3" d="M87.19,55.35A23.07,23.07,0,0,0,64,32.16V89H76s1.61-9.33,3.75-12.9,7.49-13,7.49-19.47l0,0C87.18,56.19,87.19,55.77,87.19,55.35Z"/><path class="cls-4" d="M71.25,90a1,1,0,0,1-1-1v-12a4.84,4.84,0,0,1,.46-1.94L73,70.5H70.27c-.14,0-.42,0-.49.11l-1.9,3.18a1.41,1.41,0,0,1-1.32.75,1.47,1.47,0,0,1-1.25-.93L64,70.75l-1.3,2.84a1.43,1.43,0,0,1-1.24.91,1.42,1.42,0,0,1-1.32-.79l-1.9-3.1c-.07-.12-.35-.11-.49-.11H55l2.24,4.67a5,5,0,0,1,.47,1.94v12a.88.88,0,1,1-1.75,0v-12a4,4,0,0,0-.4-1.29l-2.55-5.43a1.5,1.5,0,0,1,0-1.48,1.47,1.47,0,0,1,1.32-.66h3.33a2.64,2.64,0,0,1,2.18,1.23l1.4,2.39,1.38-3c.46-1,.64-1.39,1.29-1.39s.83.37,1.29,1.38l1.4,3,1.4-2.38a2.64,2.64,0,0,1,2.19-1.23H73.6A1.46,1.46,0,0,1,75,70.41l-2.5,5.42a3.74,3.74,0,0,0-.25,1.28v12A1,1,0,0,1,71.25,90Z"/><path class="cls-5" d="M73.6,68.25H70.27a2.64,2.64,0,0,0-2.19,1.23l-1.4,2.4-1.4-3c-.46-1-.53-1.38-1.28-1.38v3.28l1.32,2.83a1.43,1.43,0,0,0,1.24.91,1.45,1.45,0,0,0,1.32-.79l1.9-3.1c.07-.12.35-.11.49-.11H73l-2.24,4.67a4.84,4.84,0,0,0-.46,1.94V89h2V77.11a4,4,0,0,1,.25-1.29L75,70.4A1.51,1.51,0,0,0,75,68.91,1.54,1.54,0,0,0,73.6,68.25Z"/><path class="cls-6" d="M53.3,88a3.27,3.27,0,0,0-3.55,3.2v12.49A14.36,14.36,0,0,0,64,118V88Z"/><path class="cls-7" d="M74.7,88H64v30a14.2,14.2,0,0,0,14.25-14.27V91.2A3.27,3.27,0,0,0,74.7,88Z"/><path class="cls-6" d="M80.25,95.3V92.63c0-.49-.6-.88-1.09-.88H64v4.5H79.16A1.14,1.14,0,0,0,80.25,95.3Z"/><path class="cls-8" d="M48.84,91.75a.84.84,0,0,0-.84.88V95.3a.9.9,0,0,0,.84,1H64v-4.5Z"/><path class="cls-6" d="M79.16,104.5a1.17,1.17,0,0,0,1.09-1v-2.68c0-.49-.6-.83-1.09-.83H64v4.5Z"/><path class="cls-8" d="M48,100.83v2.68a.94.94,0,0,0,.84,1H64V100H48.84A.8.8,0,0,0,48,100.83Z"/><path class="cls-2" d="M64.13,23.24a2.63,2.63,0,0,1-2.63-2.67V12.72a2.63,2.63,0,1,1,5.25,0v7.85A2.63,2.63,0,0,1,64.13,23.24Z"/><path class="cls-2" d="M64.13,23.24a2.63,2.63,0,0,1-2.63-2.67V12.72a2.63,2.63,0,1,1,5.25,0v7.85A2.63,2.63,0,0,1,64.13,23.24Z"/><path class="cls-3" d="M105.92,57.5H98.07a2.63,2.63,0,1,1,0-5.25h7.85a2.63,2.63,0,1,1,0,5.25Z"/><path class="cls-3" d="M105.92,57.5H98.07a2.63,2.63,0,1,1,0-5.25h7.85a2.63,2.63,0,1,1,0,5.25Z"/><path class="cls-2" d="M29.93,57.5H22.08a2.63,2.63,0,1,1,0-5.25h7.85a2.63,2.63,0,1,1,0,5.25Z"/><path class="cls-2" d="M39.91,33.22A2.66,2.66,0,0,1,38,32.44l-5.55-5.55a2.68,2.68,0,1,1,3.78-3.79l5.55,5.55a2.68,2.68,0,0,1-1.89,4.57Z"/><path class="cls-3" d="M88.09,33.22a2.68,2.68,0,0,1-1.89-4.57l5.55-5.55a2.68,2.68,0,0,1,3.78,3.79L90,32.44A2.67,2.67,0,0,1,88.09,33.22Z"/><path class="cls-3" d="M88.09,33.22a2.68,2.68,0,0,1-1.89-4.57l5.55-5.55a2.68,2.68,0,0,1,3.78,3.79L90,32.44A2.67,2.67,0,0,1,88.09,33.22Z"/></g></g></svg>