<svg id="Capa_1" data-name="Capa 1" xmlns="http://www.w3.org/2000/svg" viewBox="0 0 96 96"><defs><style>.cls-1{fill:#4bea5a;}.cls-2{opacity:0.1;isolation:isolate;}.cls-3{fill:#64798a;}.cls-4{fill:#ebf0f3;}.cls-5{fill:#e1e6e9;}.cls-6{fill:#27a2db;}.cls-7{fill:#fcd462;}.cls-8{fill:#e56353;}</style></defs><title>Rocket2</title><circle class="cls-1" cx="48" cy="48" r="48"/><path class="cls-2" d="M96,48a47,47,0,0,0-.36-5.81L75,21.5a1.57,1.57,0,0,0-.25-.2l-.11-.05-.23-.09a1.36,1.36,0,0,1-.17,0l-.25-.05-.21,0-.28,0a1,1,0,0,0-.25,0,1.67,1.67,0,0,0-.31,0,1.31,1.31,0,0,0-.28,0c-.11,0-.23,0-.35,0l-.31,0-.37.06-.36.07-.22,0c-.33.06-.67.15-1,.25l-.3.08-.54.15-.32.1-.58.18-.33.12c-.2.06-.41.13-.61.21l-.35.1-.65.25-.33.13-.7.28-.27.11-.79.33a78.55,78.55,0,0,0-11.25,6A73.66,73.66,0,0,0,41.8,38.4a69.33,69.33,0,0,0-5.48,5.89,12.63,12.63,0,0,0-13.31,3,13.84,13.84,0,0,0-2.54,3.35l7.83,7.83c-2.1,3.28-3.87,11.92-3.87,11.92L50,96A48,48,0,0,0,96,48Z"/><path class="cls-3" d="M44.05,75a13.48,13.48,0,0,0,3.43-2.42c5-4.83,5.5-12.39,1.15-16.89l-6,5.77C46.11,65,46.5,70.46,44.05,75Z"/><path class="cls-3" d="M20.48,50.63A13.81,13.81,0,0,1,23,47.28c5-4.82,12.57-5.09,16.92-.59l-6,5.77C30.53,48.9,25.08,48.33,20.48,50.63Z"/><path class="cls-4" d="M40.65,65.17C45.17,63.7,50.74,60.11,57,54.07,69.1,42.35,77.88,24.53,75,21.5,72.5,19,53.92,26.66,41.8,38.38c-6.25,6-10,11.5-11.62,16Z"/><circle class="cls-5" cx="58.6" cy="37.33" r="5.53"/><circle class="cls-6" cx="58.6" cy="37.33" r="4.07"/><path class="cls-7" d="M31.86,56.09A6,6,0,0,0,29,57.64C26.56,60,24.43,70.39,24.43,70.39s10.5-1.79,12.89-4.1A6,6,0,0,0,39,63.43Z"/><path class="cls-8" d="M32.75,57a4.46,4.46,0,0,0-2.19,1.17c-1.81,1.73-3.41,9.58-3.41,9.58s7.91-1.35,9.7-3.09a4.43,4.43,0,0,0,1.25-2.15Z"/><path class="cls-7" d="M33.79,58.08a2.74,2.74,0,0,0-1.33.71c-1.1,1.06-2.07,5.84-2.07,5.84s4.81-.82,5.9-1.88A2.7,2.7,0,0,0,37,61.44Z"/><path class="cls-8" d="M75,21.5c-1.08-1.11-5.31-.24-10.74,2.1l8.5,8.77C75.25,27.06,76.25,22.84,75,21.5Z"/><path class="cls-7" d="M72.7,32.37,64.2,23.6l-1.14.5,9.07,9.37C72.33,33.11,72.53,32.73,72.7,32.37Z"/></svg>